# Blender v3.0.0 OBJ File: 'DefaultBuilding.blend'
# www.blender.org
mtllib DefaultBuilding.mtl
o Cube
v 1.000000 0.000000 -2.000000
v 1.000000 0.000000 1.000000
v -1.000000 0.000000 -2.000000
v -1.000000 0.000000 1.000000
v 1.000000 1.932825 -2.000000
v 1.000000 1.932825 1.000000
v -1.000000 1.932825 -2.000000
v -1.000000 1.932825 1.000000
v 0.021000 2.800000 -2.000000
v 0.211897 2.720928 -2.000000
v 0.052637 2.797306 -2.000000
v 0.087506 2.789406 -2.000000
v 0.123232 2.776840 -2.000000
v 0.157379 2.760464 -2.000000
v 0.187621 2.741393 -2.000000
v 0.211897 2.720928 1.000000
v 0.021000 2.800000 1.000000
v 0.187621 2.741393 1.000000
v 0.157379 2.760464 1.000000
v 0.123232 2.776840 1.000000
v 0.087506 2.789406 1.000000
v 0.052637 2.797306 1.000000
v -0.211897 2.720928 -2.000000
v -0.021000 2.800000 -2.000000
v -0.187621 2.741393 -2.000000
v -0.157379 2.760464 -2.000000
v -0.123232 2.776840 -2.000000
v -0.087506 2.789406 -2.000000
v -0.052637 2.797306 -2.000000
v -0.021000 2.800000 1.000000
v -0.211897 2.720928 1.000000
v -0.052637 2.797306 1.000000
v -0.087506 2.789406 1.000000
v -0.123232 2.776840 1.000000
v -0.157379 2.760464 1.000000
v -0.187621 2.741393 1.000000
vt 0.617940 0.000000
vt 0.617940 0.250000
vt 0.547574 0.250000
vt 0.547574 0.000000
vt 0.375000 0.000000
vt 0.375000 0.250000
vt 0.125000 0.500000
vt 0.375000 0.500000
vt 0.375000 0.750000
vt 0.125000 0.750000
vt 0.547574 0.750000
vt 0.617940 0.848513
vt 0.619767 0.851547
vt 0.621470 0.855328
vt 0.622932 0.859596
vt 0.624054 0.864062
vt 0.624759 0.868420
vt 0.625000 0.872375
vt 0.625000 0.877625
vt 0.624759 0.881580
vt 0.624054 0.885938
vt 0.622932 0.890404
vt 0.621470 0.894672
vt 0.619767 0.898453
vt 0.617940 0.901487
vt 0.547574 1.000000
vt 0.375000 1.000000
vt 0.547574 0.500000
vt 0.747375 0.500000
vt 0.752625 0.500000
vt 0.752625 0.750000
vt 0.747375 0.750000
vt 0.716453 0.500000
vt 0.716453 0.750000
vt 0.743420 0.750000
vt 0.743420 0.500000
vt 0.739062 0.750000
vt 0.739062 0.500000
vt 0.733397 0.750000
vt 0.733397 0.500000
vt 0.726530 0.750000
vt 0.726530 0.500000
vt 0.721247 0.750000
vt 0.721247 0.500000
vt 0.756580 0.500000
vt 0.756580 0.750000
vt 0.760938 0.500000
vt 0.760938 0.750000
vt 0.766603 0.500000
vt 0.766603 0.750000
vt 0.625000 0.000000
vt 0.625000 0.250000
vt 0.622139 0.250000
vt 0.622139 0.000000
vt 0.619937 0.250000
vt 0.619937 0.000000
vt 0.617940 0.348513
vt 0.619767 0.351547
vt 0.621470 0.355328
vt 0.622932 0.359596
vt 0.624054 0.364062
vt 0.624759 0.368420
vt 0.625000 0.372375
vt 0.625000 0.377625
vt 0.624759 0.381580
vt 0.624054 0.385938
vt 0.622932 0.390404
vt 0.621470 0.394672
vt 0.619767 0.398453
vt 0.617940 0.401487
vn -0.7071 0.7071 -0.0000
vn -1.0000 0.0000 0.0000
vn 0.0000 -1.0000 0.0000
vn 0.0000 0.0000 1.0000
vn 1.0000 0.0000 0.0000
vn 0.0000 1.0000 0.0000
vn 0.7071 0.7071 0.0000
vn 0.0849 0.9964 -0.0000
vn 0.2209 0.9753 -0.0000
vn 0.3318 0.9433 -0.0000
vn 0.4324 0.9017 0.0000
vn 0.5334 0.8459 -0.0000
vn 0.6445 0.7646 -0.0000
vn -0.0849 0.9964 0.0000
vn -0.2209 0.9753 0.0000
vn -0.3318 0.9433 0.0000
vn -0.4324 0.9017 -0.0000
vn -0.5334 0.8459 0.0000
vn -0.6445 0.7646 0.0000
vn 0.0000 0.0000 -1.0000
usemtl Material
s off
f 31/1/1 23/2/1 7/3/1 8/4/1
f 4/5/2 8/4/2 7/3/2 3/6/2
f 3/7/3 1/8/3 2/9/3 4/10/3
f 2/9/4 6/11/4 16/12/4 18/13/4 19/14/4 20/15/4 21/16/4 22/17/4 17/18/4 30/19/4 32/20/4 33/21/4 34/22/4 35/23/4 36/24/4 31/25/4 8/26/4 4/27/4
f 1/8/5 5/28/5 6/11/5 2/9/5
f 9/29/6 24/30/6 30/31/6 17/32/6
f 10/33/7 16/34/7 6/11/7 5/28/7
f 9/29/8 17/32/8 22/35/8 11/36/8
f 11/36/9 22/35/9 21/37/9 12/38/9
f 12/38/10 21/37/10 20/39/10 13/40/10
f 13/40/11 20/39/11 19/41/11 14/42/11
f 14/42/12 19/41/12 18/43/12 15/44/12
f 15/44/13 18/43/13 16/34/13 10/33/13
f 30/31/14 24/30/14 29/45/14 32/46/14
f 32/46/15 29/45/15 28/47/15 33/48/15
f 33/48/16 28/47/16 27/49/16 34/50/16
f 34/51/17 27/52/17 26/53/17 35/54/17
f 35/54/18 26/53/18 25/55/18 36/56/18
f 36/56/19 25/55/19 23/2/19 31/1/19
f 3/6/20 7/3/20 23/57/20 25/58/20 26/59/20 27/60/20 28/61/20 29/62/20 24/63/20 9/64/20 11/65/20 12/66/20 13/67/20 14/68/20 15/69/20 10/70/20 5/28/20 1/8/20
